<?xml version="1.0"?>
<svg xmlns="http://www.w3.org/2000/svg" xmlns:lc="http://www.librecad.org" xmlns:xlink="http://www.w3.org/1999/xlink" width="314.06802974mm" height="250mm" viewBox="0 0 314.06802974 250">
    <g lc:layername="0" lc:is_locked="false" lc:is_construction="false" fill="none" stroke="black" stroke-width="1">
        <path d="M157.41117549,209.1862915 L157.41117549,142.5 A4,4 0 0,0 156.23960262,139.67157288 L147.73960262,131.17157288 A4,4 0 0,0 142.08274837,131.17157288 L133.58274837,139.67157288 A4,4 0 0,0 132.41117549,142.5 L132.41117549,209.1862915 A4,4 0 0,0 133.58274837,212.01471863 L142.08274837,220.51471863 A4,4 0 0,0 147.73960262,220.51471863 L156.23960262,212.01471863 A4,4 0 0,0 157.41117549,209.1862915 Z "/>
        <path d="M297.41117549,209.1862915 L297.41117549,142.5 A4,4 0 0,0 296.23960262,139.67157288 L287.73960262,131.17157288 A4,4 0 0,0 282.08274837,131.17157288 L273.58274837,139.67157288 A4,4 0 0,0 272.41117549,142.5 L272.41117549,209.1862915 A4,4 0 0,0 273.58274837,212.01471863 L282.08274837,220.51471863 A4,4 0 0,0 287.73960262,220.51471863 L296.23960262,212.01471863 A4,4 0 0,0 297.41117549,209.1862915 Z "/>
        <path d="M170.72488399,40.8137085 L170.72488399,107.5 A4,4 0 0,0 171.89645686,110.32842712 L180.39645686,118.82842712 A4,4 0 0,0 186.05331111,118.82842712 L194.55331111,110.32842712 A4,4 0 0,0 195.72488399,107.5 L195.72488399,40.8137085 A4,4 0 0,0 194.55331111,37.98528137 L186.05331111,29.48528137 A4,4 0 0,0 180.39645686,29.48528137 L171.89645686,37.98528137 A4,4 0 0,0 170.72488399,40.8137085 Z "/>
        <path d="M30.72488399,40.8137085 L30.72488399,107.5 A4,4 0 0,0 31.89645686,110.32842712 L40.39645686,118.82842712 A4,4 0 0,0 46.05331111,118.82842712 L54.55331111,110.32842712 A4,4 0 0,0 55.72488399,107.5 L55.72488399,40.8137085 A4,4 0 0,0 54.55331111,37.98528137 L46.05331111,29.48528137 A4,4 0 0,0 40.39645686,29.48528137 L31.89645686,37.98528137 A4,4 0 0,0 30.72488399,40.8137085 Z "/>
        <path d="M314.06802974,220.85786438 L314.06802974,29.14213562 A10,10 0 0,0 311.13909755,22.07106781 L291.99696193,2.92893219 A10,10 0 0,0 284.92589412,0 L43.21016536,0 A10,10 0 0,0 36.13909755,2.92893219 L16.99696193,22.07106781 A10,10 0 0,0 14.06802974,29.14213562 L14.06802974,220.85786438 A10,10 0 0,0 16.99696193,227.92893219 L36.13909755,247.07106781 A10,10 0 0,0 43.21016536,250 L284.92589412,250 A10,10 0 0,0 291.99696193,247.07106781 L311.13909755,227.92893219 A10,10 0 0,0 314.06802974,220.85786438 Z "/>
        <path d="M270.23960262,136.32842712 L278.73960262,127.82842712 A4,4 0 0,0 278.73960262,122.17157288 L270.23960262,113.67157288 A4,4 0 0,0 267.41117549,112.5 L200.72488399,112.5 A4,4 0 0,0 197.89645686,113.67157288 L189.39645686,122.17157288 A4,4 0 0,0 189.39645686,127.82842712 L197.89645686,136.32842712 A4,4 0 0,0 200.72488399,137.5 L267.41117549,137.5 A4,4 0 0,0 270.23960262,136.32842712 Z "/>
        <path d="M278.73960262,17.17157288 L270.23960262,8.67157288 A4,4 0 0,0 267.41117549,7.5 L200.72488399,7.5 A4,4 0 0,0 197.89645686,8.67157288 L189.39645686,17.17157288 A4,4 0 0,0 189.39645686,22.82842712 L197.89645686,31.32842712 A4,4 0 0,0 200.72488399,32.5 L267.41117549,32.5 A4,4 0 0,0 270.23960262,31.32842712 L278.73960262,22.82842712 A4,4 0 0,0 278.73960262,17.17157288 Z "/>
        <path d="M287.73960262,118.82842712 L296.23960262,110.32842712 A4,4 0 0,0 297.41117549,107.5 L297.41117549,40.8137085 A4,4 0 0,0 296.23960262,37.98528137 L287.73960262,29.48528137 A4,4 0 0,0 282.08274837,29.48528137 L273.58274837,37.98528137 A4,4 0 0,0 272.41117549,40.8137085 L272.41117549,107.5 A4,4 0 0,0 273.58274837,110.32842712 L282.08274837,118.82842712 A4,4 0 0,0 287.73960262,118.82842712 Z "/>
        <path d="M138.73960262,122.17157288 L130.23960262,113.67157288 A4,4 0 0,0 127.41117549,112.5 L60.72488399,112.5 A4,4 0 0,0 57.89645686,113.67157288 L49.39645686,122.17157288 A4,4 0 0,0 49.39645686,127.82842712 L57.89645686,136.32842712 A4,4 0 0,0 60.72488399,137.5 L127.41117549,137.5 A4,4 0 0,0 130.23960262,136.32842712 L138.73960262,127.82842712 A4,4 0 0,0 138.73960262,122.17157288 Z "/>
        <path d="M40.39645686,131.17157288 L31.89645686,139.67157288 A4,4 0 0,0 30.72488399,142.5 L30.72488399,209.1862915 A4,4 0 0,0 31.89645686,212.01471863 L40.39645686,220.51471863 A4,4 0 0,0 46.05331111,220.51471863 L54.55331111,212.01471863 A4,4 0 0,0 55.72488399,209.1862915 L55.72488399,142.5 A4,4 0 0,0 54.55331111,139.67157288 L46.05331111,131.17157288 A4,4 0 0,0 40.39645686,131.17157288 Z "/>
        <path d="M138.73960262,17.17157288 L130.23960262,8.67157288 A4,4 0 0,0 127.41117549,7.5 L60.72488399,7.5 A4,4 0 0,0 57.89645686,8.67157288 L49.39645686,17.17157288 A4,4 0 0,0 49.39645686,22.82842712 L57.89645686,31.32842712 A4,4 0 0,0 60.72488399,32.5 L127.41117549,32.5 A4,4 0 0,0 130.23960262,31.32842712 L138.73960262,22.82842712 A4,4 0 0,0 138.73960262,17.17157288 Z "/>
        <path d="M147.73960262,118.82842712 L156.23960262,110.32842712 A4,4 0 0,0 157.41117549,107.5 L157.41117549,40.8137085 A4,4 0 0,0 156.23960262,37.98528137 L147.73960262,29.48528137 A4,4 0 0,0 142.08274837,29.48528137 L133.58274837,37.98528137 A4,4 0 0,0 132.41117549,40.8137085 L132.41117549,107.5 A4,4 0 0,0 133.58274837,110.32842712 L142.08274837,118.82842712 A4,4 0 0,0 147.73960262,118.82842712 Z "/>
        <path d="M138.73960262,227.17157288 L130.23960262,218.67157288 A4,4 0 0,0 127.41117549,217.5 L60.72488399,217.5 A4,4 0 0,0 57.89645686,218.67157288 L49.39645686,227.17157288 A4,4 0 0,0 49.39645686,232.82842712 L57.89645686,241.32842712 A4,4 0 0,0 60.72488399,242.5 L127.41117549,242.5 A4,4 0 0,0 130.23960262,241.32842712 L138.73960262,232.82842712 A4,4 0 0,0 138.73960262,227.17157288 Z "/>
        <path d="M278.73960262,227.17157288 L270.23960262,218.67157288 A4,4 0 0,0 267.41117549,217.5 L200.72488399,217.5 A4,4 0 0,0 197.89645686,218.67157288 L189.39645686,227.17157288 A4,4 0 0,0 189.39645686,232.82842712 L197.89645686,241.32842712 A4,4 0 0,0 200.72488399,242.5 L267.41117549,242.5 A4,4 0 0,0 270.23960262,241.32842712 L278.73960262,232.82842712 A4,4 0 0,0 278.73960262,227.17157288 Z "/>
        <path d="M180.39645686,131.17157288 L171.89645686,139.67157288 A4,4 0 0,0 170.72488399,142.5 L170.72488399,209.1862915 A4,4 0 0,0 171.89645686,212.01471863 L180.39645686,220.51471863 A4,4 0 0,0 186.05331111,220.51471863 L194.55331111,212.01471863 A4,4 0 0,0 195.72488399,209.1862915 L195.72488399,142.5 A4,4 0 0,0 194.55331111,139.67157288 L186.05331111,131.17157288 A4,4 0 0,0 180.39645686,131.17157288 Z "/>
    </g>
    <g lc:layername="ANNOTATION_TEXT" lc:is_locked="false" lc:is_construction="false" fill="none" stroke="black" stroke-width="1"/>
    <g lc:layername="VISIBLE" lc:is_locked="false" lc:is_construction="false" fill="none" stroke="black" stroke-width="1">
        <circle cx="164.06802974" cy="230" r="10"/>
    </g>
</svg>
